<?xml version="1.0" encoding="UTF-8"?>
<!-- Created with Inkscape (http://www.inkscape.org/) -->
<svg width="1006.6mm" height="143.15mm" version="1.1" viewBox="0 0 1006.6 143.15" xmlns="http://www.w3.org/2000/svg" xmlns:cc="http://creativecommons.org/ns#" xmlns:dc="http://purl.org/dc/elements/1.1/" xmlns:rdf="http://www.w3.org/1999/02/22-rdf-syntax-ns#">
 <metadata>
  <rdf:RDF>
   <cc:Work rdf:about="">
    <dc:format>image/svg+xml</dc:format>
    <dc:type rdf:resource="http://purl.org/dc/dcmitype/StillImage"/>
    <dc:title/>
   </cc:Work>
  </rdf:RDF>
 </metadata>
 <g transform="translate(414.08 -43.238)">
  <g fill="#3a3a3a" stroke-linecap="round" stroke-linejoin="round" stroke-width="13.463" style="paint-order:stroke fill markers" aria-label="assistecomigo">
   <path d="m-387.55 151.69q-8.7483 0-14.677-3.1812-5.8563-3.2535-8.8929-8.5314-2.9643-5.2779-2.9643-11.568 0-6.1455 2.3136-10.628 2.3859-4.5549 6.6516-7.5192 4.2657-3.0366 10.194-4.7718 5.5671-1.5183 12.436-2.6028 6.9408-1.1568 14.026-2.0967 7.0854-0.9399 13.231-1.8075l-4.6272 2.6751q0.2169-10.411-4.1934-15.4-4.338-4.9887-15.038-4.9887-7.0854 0-12.436 3.2535-5.2779 3.1812-7.4469 10.411l-12.219-3.6873q2.8197-10.267 10.917-16.123 8.0976-5.8563 21.328-5.8563 10.628 0 18.22 3.8319 7.6638 3.7596 10.99 11.423 1.6629 3.615 2.0967 7.8807 0.4338 4.1934 0.4338 8.8206v48.296h-11.423v-18.726l2.6751 1.7352q-4.4103 9.4713-12.363 14.315-7.8807 4.8441-19.232 4.8441zm1.9521-10.773q6.9408 0 12.002-2.4582 5.1333-2.5305 8.2422-6.5793 3.1089-4.1211 4.0488-8.9652 1.0845-3.615 1.1568-8.0253 0.1446-4.4826 0.1446-6.8685l4.4826 1.9521q-6.2901 0.8676-12.363 1.6629t-11.496 1.7352q-5.4225 0.8676-9.7605 2.0967-3.1812 1.0122-6.0009 2.6028-2.7474 1.5906-4.4826 4.1211-1.6629 2.4582-1.6629 6.1455 0 3.1812 1.5906 6.0732 1.6629 2.892 5.061 4.6995 3.4704 1.8075 9.0375 1.8075z"/>
   <path d="m-298.91 151.62q-13.954 0-22.919-6.0732-8.8929-6.1455-10.917-17.135l13.159-2.0967q1.5906 6.3624 7.3023 10.122 5.7117 3.6873 14.171 3.6873 8.0253 0 12.58-3.3258t4.5549-9.0375q0-3.3258-1.5183-5.3502-1.5183-2.0967-6.2901-3.9042-4.6995-1.8075-14.243-4.338-10.339-2.7474-16.268-5.7117t-8.4591-6.8685q-2.5305-3.9042-2.5305-9.4713 0-6.8685 3.7596-12.002 3.7596-5.2056 10.484-8.0253 6.7962-2.8197 15.761-2.8197 8.8929 0 15.906 2.8197t11.279 8.0253q4.338 5.1333 5.1333 12.002l-13.159 2.3859q-0.9399-6.2901-6.0732-9.9051-5.061-3.615-13.086-3.8319-7.5915-0.2892-12.363 2.6751-4.6995 2.9643-4.6995 8.0253 0 2.8197 1.7352 4.8441 1.8075 2.0244 6.5793 3.8319 4.8441 1.8075 14.026 4.1211 10.339 2.6028 16.268 5.7117 6.0009 3.0366 8.5314 7.23 2.5305 4.1211 2.5305 10.194 0 11.279-8.3145 17.786-8.3145 6.4347-22.919 6.4347z"/>
   <path d="m-222.09 151.62q-13.954 0-22.919-6.0732-8.8929-6.1455-10.917-17.135l13.159-2.0967q1.5906 6.3624 7.3023 10.122 5.7117 3.6873 14.171 3.6873 8.0253 0 12.58-3.3258t4.5549-9.0375q0-3.3258-1.5183-5.3502-1.5183-2.0967-6.2901-3.9042-4.6995-1.8075-14.243-4.338-10.339-2.7474-16.268-5.7117-5.9286-2.9643-8.4591-6.8685-2.5305-3.9042-2.5305-9.4713 0-6.8685 3.7596-12.002 3.7596-5.2056 10.484-8.0253 6.7962-2.8197 15.761-2.8197 8.8929 0 15.906 2.8197t11.279 8.0253q4.338 5.1333 5.1333 12.002l-13.159 2.3859q-0.9399-6.2901-6.0732-9.9051-5.061-3.615-13.086-3.8319-7.5915-0.2892-12.363 2.6751-4.6995 2.9643-4.6995 8.0253 0 2.8197 1.7352 4.8441 1.8075 2.0244 6.5793 3.8319 4.8441 1.8075 14.026 4.1211 10.339 2.6028 16.268 5.7117 6.0009 3.0366 8.5314 7.23 2.5305 4.1211 2.5305 10.194 0 11.279-8.3145 17.786-8.3145 6.4347-22.919 6.4347z"/>
   <path d="m-173.32 57.626v-13.303h12.869v13.303zm0 91.893v-78.084h12.869v78.084z"/>
   <path d="m-109.4 151.62q-13.954 0-22.919-6.0732-8.8929-6.1455-10.917-17.135l13.159-2.0967q1.5906 6.3624 7.3023 10.122 5.7117 3.6873 14.171 3.6873 8.0253 0 12.58-3.3258 4.5549-3.3258 4.5549-9.0375 0-3.3258-1.5183-5.3502-1.5183-2.0967-6.2901-3.9042-4.6995-1.8075-14.243-4.338-10.339-2.7474-16.268-5.7117t-8.4591-6.8685q-2.5305-3.9042-2.5305-9.4713 0-6.8685 3.7596-12.002 3.7596-5.2056 10.484-8.0253 6.7962-2.8197 15.761-2.8197 8.8929 0 15.906 2.8197 7.0131 2.8197 11.279 8.0253 4.338 5.1333 5.1333 12.002l-13.159 2.3859q-0.9399-6.2901-6.0732-9.9051-5.061-3.615-13.086-3.8319-7.5915-0.2892-12.363 2.6751-4.6995 2.9643-4.6995 8.0253 0 2.8197 1.7352 4.8441 1.8075 2.0244 6.5793 3.8319 4.8441 1.8075 14.026 4.1211 10.339 2.6028 16.267 5.7117 6.0009 3.0366 8.5314 7.23 2.5305 4.1211 2.5305 10.194 0 11.279-8.3145 17.786-8.3145 6.4347-22.919 6.4347z"/>
   <path d="m-18.486 149.52q-6.9408 1.3737-13.737 1.0845-6.7239-0.2169-12.002-2.6751-5.2779-2.5305-8.0253-7.8084-2.3136-4.6272-2.5305-9.3267-0.1446-4.7718-0.1446-10.773v-70.276h12.869v69.697q0 4.7718 0.0723 8.1699 0.1446 3.3981 1.5183 5.8563 2.6028 4.6272 8.2422 5.4225 5.7117 0.7953 13.737-0.4338zm-52.273-67.456v-10.628h52.273v10.628z"/>
   <path d="m27.955 151.69q-11.496 0-20.099-5.061-8.5314-5.1333-13.303-14.243-4.7718-9.1821-4.7718-21.401 0-12.797 4.6995-22.124 4.6995-9.399 13.086-14.46 8.4591-5.1333 19.81-5.1333 11.785 0 20.027 5.4225 8.3145 5.4225 12.436 15.472 4.1934 10.05 3.615 23.931h-13.014v-4.6272q-0.2169-14.388-5.8563-21.473-5.6394-7.1577-16.774-7.1577-11.93 0-18.147 7.6638-6.2178 7.6638-6.2178 21.979 0 13.809 6.2178 21.401 6.2178 7.5915 17.714 7.5915 7.7361 0 13.448-3.5427 5.7117-3.5427 8.9652-10.194l12.363 4.2657q-4.5549 10.339-13.737 16.051-9.1098 5.6394-20.461 5.6394zm-28.848-37.596v-10.339h57.695v10.339z"/>
   <path d="m113.83 151.69q-12.146 0-20.822-5.4225-8.676-5.4225-13.303-14.749t-4.6272-21.039q0-11.857 4.7718-21.184 4.8441-9.3267 13.592-14.677 8.7483-5.3502 20.678-5.3502 13.809 0 23.136 7.0131 9.399 6.9408 12.002 19.015l-19.666 5.2056q-1.7352-6.0732-6.0732-9.4713-4.2657-3.3981-9.6882-3.3981-6.2178 0-10.194 3.0366-3.9765 2.9643-5.8563 8.1699-1.8798 5.1333-1.8798 11.64 0 10.194 4.4826 16.557 4.5549 6.2901 13.448 6.2901 6.6516 0 10.122-3.0366t5.2056-8.676l20.099 4.1934q-3.3258 12.436-12.58 19.16t-22.847 6.7239z"/>
   <path d="m196.73 151.69q-11.785 0-20.678-5.2779t-13.882-14.532q-4.9164-9.3267-4.9164-21.401 0-12.219 5.061-21.473 5.061-9.3267 13.954-14.532t20.461-5.2056q11.785 0 20.678 5.2779 8.9652 5.2779 13.954 14.605 4.9887 9.2544 4.9887 21.329 0 12.146-5.061 21.473-4.9887 9.2544-13.954 14.532-8.8929 5.2056-20.606 5.2056zm0-18.364q9.4713 0 14.098-6.3624 4.6995-6.4347 4.6995-16.484 0-10.411-4.7718-16.629-4.6995-6.2178-14.026-6.2178-6.4347 0-10.556 2.892t-6.1455 8.0253q-1.9521 5.1333-1.9521 11.93 0 10.484 4.6995 16.701 4.7718 6.1455 13.954 6.1455z"/>
   <path d="m346.24 149.52v-46.127q0-7.7361-3.6873-12.002-3.615-4.338-10.05-4.338-4.1211 0-7.1577 1.9521-3.0366 1.8798-4.7718 5.3502-1.6629 3.3981-1.6629 7.8807l-8.2422-5.4948q0-8.0253 3.7596-14.171 3.8319-6.1455 10.194-9.5436 6.4347-3.4704 14.243-3.4704 13.376 0 20.172 7.953 6.8685 7.8807 6.8685 20.678v51.333zm-94.135 0v-78.084h17.352v25.883h2.4582v52.201zm47.14 0v-46.127q0-7.7361-3.6873-12.002-3.615-4.338-10.05-4.338-6.1455 0-9.9051 4.2657-3.6873 4.1934-3.6873 10.917l-8.2422-5.784q0-7.6638 3.8319-13.737 3.8319-6.0732 10.267-9.6159 6.507-3.5427 14.532-3.5427 9.1821 0 15.038 3.9042 5.9286 3.9042 8.7483 10.411 2.8197 6.507 2.8197 14.315v51.333z"/>
   <path d="m386.15 60.59v-17.352h19.666v17.352zm0 88.929v-78.084h19.666v78.084z"/>
   <path d="m461.04 186.39q-6.6516 0-12.652-2.169-6.0009-2.0967-10.773-5.9286-4.6995-3.7596-7.6638-8.8206l18.22-8.8206q1.8798 3.4704 5.3502 5.2779 3.5427 1.8075 7.6638 1.8075 4.4103 0 8.3145-1.5183 3.9042-1.446 6.2178-4.4103 2.3859-2.892 2.2413-7.23v-22.702h2.4582v-60.443h17.207v83.434q0 2.892-0.2892 5.4225-0.2169 2.6028-0.8676 5.1333-1.8798 7.1577-7.0131 11.785-5.061 4.6272-12.436 6.8685-7.3746 2.3136-15.978 2.3136zm-1.7352-34.704q-10.773 0-18.87-5.4225t-12.652-14.749q-4.4826-9.3267-4.4826-21.039 0-11.93 4.5549-21.184 4.6272-9.3267 12.942-14.677t19.521-5.3502q11.134 0 18.726 5.4225t11.496 14.749q3.9042 9.3267 3.9042 21.039 0 11.713-3.9765 21.039-3.9042 9.3267-11.713 14.749t-19.449 5.4225zm3.1812-17.497q6.5793 0 10.484-2.9643 3.9765-2.9643 5.7117-8.3145t1.7352-12.436-1.7352-12.436q-1.7352-5.3502-5.5671-8.3145-3.7596-2.9643-9.9051-2.9643-6.5793 0-10.845 3.2535-4.1934 3.1812-6.2178 8.6037-2.0244 5.3502-2.0244 11.857 0 6.5793 1.9521 12.002 1.9521 5.3502 6.0009 8.5314t10.411 3.1812z"/>
   <path d="m552.87 151.69q-11.785 0-20.678-5.2779t-13.882-14.532q-4.9164-9.3267-4.9164-21.401 0-12.219 5.061-21.473 5.061-9.3267 13.954-14.532t20.461-5.2056q11.785 0 20.678 5.2779 8.9652 5.2779 13.954 14.605 4.9887 9.2544 4.9887 21.329 0 12.146-5.061 21.473-4.9887 9.2544-13.954 14.532-8.8929 5.2056-20.606 5.2056zm0-18.364q9.4713 0 14.098-6.3624 4.6995-6.4347 4.6995-16.484 0-10.411-4.7718-16.629-4.6995-6.2178-14.026-6.2178-6.4347 0-10.556 2.892t-6.1455 8.0253q-1.9521 5.1333-1.9521 11.93 0 10.484 4.6995 16.701 4.7718 6.1455 13.954 6.1455z"/>
  </g>
 </g>
</svg>
