<?xml version="1.0" encoding="UTF-8" standalone="no"?>
<svg
   xmlns:dc="http://purl.org/dc/elements/1.1/"
   xmlns:cc="http://creativecommons.org/ns#"
   xmlns:rdf="http://www.w3.org/1999/02/22-rdf-syntax-ns#"
   xmlns:svg="http://www.w3.org/2000/svg"
   xmlns="http://www.w3.org/2000/svg"
   xmlns:xlink="http://www.w3.org/1999/xlink"
   xmlns:sodipodi="http://sodipodi.sourceforge.net/DTD/sodipodi-0.dtd"
   xmlns:inkscape="http://www.inkscape.org/namespaces/inkscape"
   width="1600"
   height="400"
   viewBox="0 0 423.33333 105.83334"
   version="1.1"
   id="svg8"
   inkscape:export-filename="C:\Users\guilh\bitmap2.png"
   inkscape:export-xdpi="96"
   inkscape:export-ydpi="96"
   inkscape:version="1.0.2 (e86c870879, 2021-01-15, custom)"
   sodipodi:docname="desenhando.svg">
  <defs
     id="defs2">
    <linearGradient
       inkscape:collect="always"
       id="linearGradient215">
      <stop
         style="stop-color:#d60915;stop-opacity:1"
         offset="0"
         id="stop211" />
      <stop
         style="stop-color:#d0060e;stop-opacity:1"
         offset="1"
         id="stop213" />
    </linearGradient>
    <linearGradient
       id="linearGradient1579"
       x1="669.44"
       x2="742.72998"
       y1="585.82001"
       y2="512.53003"
       gradientTransform="matrix(2.3249,0,0,2.5776,-1839.4,-1493)"
       gradientUnits="userSpaceOnUse"
       xlink:href="#linearGradient3026" />
    <linearGradient
       id="linearGradient3026">
      <stop
         stop-color="#c50101"
         offset="0"
         id="stop11" />
      <stop
         stop-color="#fd1a44"
         offset="1"
         id="stop13" />
    </linearGradient>
    <clipPath
       id="clipPath1099">
      <path
         d="m 1913.1,-604.69 a 109.32,107.57 0 0 0 -0.7305,0.007 109.32,107.57 0 0 0 -107.95,107.54 v 671.98 a 109.32,107.57 0 0 0 163.97,93.149 l 591.46,-336 a 109.32,107.57 0 0 0 0,-186.29 l -591.46,-336 a 109.32,107.57 0 0 0 -55.292,-14.402 z"
         color="#000000"
         color-rendering="auto"
         dominant-baseline="auto"
         fill="url(#linearGradient1103)"
         image-rendering="auto"
         shape-rendering="auto"
         solid-color="#000000"
         stop-color="#000000"
         style="font-variant-ligatures:normal;font-variant-position:normal;font-variant-caps:normal;font-variant-numeric:normal;font-variant-alternates:normal;font-variant-east-asian:normal;font-feature-settings:normal;font-variation-settings:normal;text-indent:0;text-decoration:none;text-decoration-line:none;text-decoration-style:solid;text-decoration-color:#000000;text-transform:none;text-orientation:mixed;white-space:normal;shape-padding:0;shape-margin:0;inline-size:0;isolation:auto;mix-blend-mode:normal;paint-order:stroke fill markers"
         id="path16" />
    </clipPath>
    <linearGradient
       id="linearGradient1567"
       x1="2168.1001"
       x2="2168.1001"
       y1="-496.56"
       y2="293.95999"
       gradientTransform="matrix(0.1221,0,0,1.5346,2012.2,-176.01)"
       gradientUnits="userSpaceOnUse">
      <stop
         stop-color="#ff4e5b"
         offset="0"
         id="stop19" />
      <stop
         stop-color="#ff349f"
         offset="1"
         id="stop21" />
    </linearGradient>
    <linearGradient
       id="linearGradient1569"
       x1="2168.1001"
       x2="2168.1001"
       y1="291.82999"
       y2="-255.53999"
       gradientTransform="matrix(0.1221,0,0,1.5346,2147.3,-176.01)"
       gradientUnits="userSpaceOnUse"
       xlink:href="#linearGradient3026" />
    <linearGradient
       id="linearGradient1571"
       x1="2168.1001"
       x2="2168.1001"
       y1="291.82999"
       y2="-255.53999"
       gradientTransform="matrix(0.1221,0,0,1.5346,2282.3,-176.01)"
       gradientUnits="userSpaceOnUse">
      <stop
         stop-color="#1d2ebb"
         offset="0"
         id="stop25" />
      <stop
         stop-color="#1b72e3"
         offset="1"
         id="stop27" />
    </linearGradient>
    <linearGradient
       id="linearGradient1573"
       x1="2168.1001"
       x2="2168.1001"
       y1="291.82999"
       y2="-255.53999"
       gradientTransform="matrix(0.1221,0,0,1.5346,1877.2,-176.01)"
       gradientUnits="userSpaceOnUse">
      <stop
         stop-color="#00d91a"
         offset="0"
         id="stop30" />
      <stop
         stop-color="#6f0"
         offset="1"
         id="stop32" />
    </linearGradient>
    <linearGradient
       id="linearGradient1575"
       x1="2168.1001"
       x2="2168.1001"
       y1="291.82999"
       y2="-255.53999"
       gradientTransform="matrix(0.1221,0,0,1.5346,1742.2,-176.01)"
       gradientUnits="userSpaceOnUse">
      <stop
         stop-color="#e3b91b"
         offset="0"
         id="stop35" />
      <stop
         stop-color="#fffb86"
         offset="1"
         id="stop37" />
    </linearGradient>
    <linearGradient
       id="linearGradient1577"
       x1="2168.1001"
       x2="2168.1001"
       y1="291.82999"
       y2="-255.53999"
       gradientTransform="matrix(0.1221,0,0,1.5346,1607.2,-176.01)"
       gradientUnits="userSpaceOnUse">
      <stop
         stop-color="#1bafe3"
         offset="0"
         id="stop40" />
      <stop
         stop-color="#02feff"
         offset="1"
         id="stop42" />
    </linearGradient>
    <linearGradient
       id="linearGradient1565"
       x1="2416.5"
       x2="2112.2"
       y1="183.35001"
       y2="-343.64999"
       gradientUnits="userSpaceOnUse">
      <stop
         offset="0"
         id="stop45" />
      <stop
         stop-opacity="0"
         offset="1"
         id="stop47" />
    </linearGradient>
    <clipPath
       id="clipPath1131">
      <path
         d="m 2094.2,-339.01 a 62.778,62.778 0 0 0 -0.4195,0.004 62.778,62.778 0 0 0 -61.991,62.765 v 392.18 a 62.778,62.778 0 0 0 94.16,54.364 l 339.64,-196.09 a 62.778,62.778 0 0 0 0,-108.72 l -339.64,-196.09 a 62.778,62.778 0 0 0 -31.752,-8.4054 z"
         color="#000000"
         color-rendering="auto"
         dominant-baseline="auto"
         fill="url(#linearGradient1135)"
         image-rendering="auto"
         shape-rendering="auto"
         solid-color="#000000"
         stop-color="#000000"
         style="font-variant-ligatures:normal;font-variant-position:normal;font-variant-caps:normal;font-variant-numeric:normal;font-variant-alternates:normal;font-variant-east-asian:normal;font-feature-settings:normal;font-variation-settings:normal;text-indent:0;text-decoration:none;text-decoration-line:none;text-decoration-style:solid;text-decoration-color:#000000;text-transform:none;text-orientation:mixed;white-space:normal;shape-padding:0;shape-margin:0;inline-size:0;isolation:auto;mix-blend-mode:normal;paint-order:stroke fill markers"
         id="path50" />
    </clipPath>
    <filter
       id="filter1127"
       x="-0.027704"
       y="-0.024892"
       width="1.0554"
       height="1.0498"
       color-interpolation-filters="sRGB">
      <feGaussianBlur
         stdDeviation="5.3697325"
         id="feGaussianBlur53" />
    </filter>
    <linearGradient
       inkscape:collect="always"
       xlink:href="#linearGradient215"
       id="linearGradient217"
       x1="338.65366"
       y1="53.931271"
       x2="338.65344"
       y2="59.266808"
       gradientUnits="userSpaceOnUse"
       gradientTransform="translate(2.1166666,4.2333333)" />
  </defs>
  <sodipodi:namedview
     id="base"
     pagecolor="#ffffff"
     bordercolor="#666666"
     borderopacity="1.0"
     inkscape:pageopacity="0.0"
     inkscape:pageshadow="2"
     inkscape:zoom="0.5"
     inkscape:cx="574.76881"
     inkscape:cy="173.53782"
     inkscape:document-units="mm"
     inkscape:current-layer="layer1"
     inkscape:document-rotation="0"
     showgrid="false"
     units="px"
     inkscape:window-width="1758"
     inkscape:window-height="1030"
     inkscape:window-x="64"
     inkscape:window-y="0"
     inkscape:window-maximized="0" />
  <metadata
     id="metadata5">
    <rdf:RDF>
      <cc:Work
         rdf:about="">
        <dc:format>image/svg+xml</dc:format>
        <dc:type
           rdf:resource="http://purl.org/dc/dcmitype/StillImage" />
        <dc:title></dc:title>
      </cc:Work>
    </rdf:RDF>
  </metadata>
  <g
     inkscape:label="Layer 1"
     inkscape:groupmode="layer"
     id="layer1">
    <g
       transform="matrix(0.21137166,0,0,0.21137166,403.47298,79.132611)"
       id="g78">
      <path
         d="m -100.76,-65.444 c 1.4806,-3.7173 2.2806,-7.79 2.2806,-11.989 0,-10.603 -5.1011,-20.402 -13.383,-25.705 l -144.86,-92.727 c -4.1161,-2.6338 -8.7902,-4.0057 -13.543,-3.9747 l 8.4e-4,-0.002 c -0.0597,0.001 -0.11933,0.003 -0.179,0.005 -14.654,0.20378 -26.438,13.431 -26.44,29.679 v 185.45 c 10e-4,10.604 5.1046,20.403 13.388,25.705 1.97,1.261 4.0487,2.2221 6.1844,2.8834"
         color="#000000"
         color-rendering="auto"
         dominant-baseline="auto"
         fill="none"
         image-rendering="auto"
         shape-rendering="auto"
         solid-color="#000000"
         stop-color="#000000"
         stroke="url(#linearGradient1579)"
         stroke-linecap="round"
         stroke-linejoin="round"
         stroke-width="22.027"
         style="font-variant-ligatures:normal;font-variant-position:normal;font-variant-caps:normal;font-variant-numeric:normal;font-variant-alternates:normal;font-variant-east-asian:normal;font-feature-settings:normal;font-variation-settings:normal;text-indent:0;text-decoration:none;text-decoration-line:none;text-decoration-style:solid;text-decoration-color:#000000;text-transform:none;text-orientation:mixed;white-space:normal;shape-padding:0;shape-margin:0;inline-size:0;isolation:auto;mix-blend-mode:normal;stroke:url(#linearGradient1579);paint-order:stroke fill markers"
         id="path60" />
      <g
         transform="matrix(0.24083,0,0,0.27136,-712.36,5.3798)"
         clip-path="url(#clipPath1099)"
         id="g74">
        <rect
           x="2209.5"
           y="-672.53003"
           width="135.00999"
           height="1048.7"
           rx="0"
           ry="0"
           fill="url(#linearGradient1567)"
           style="fill:url(#linearGradient1567);paint-order:stroke fill markers"
           id="rect62" />
        <rect
           x="2344.5"
           y="-672.53003"
           width="135.00999"
           height="1048.7"
           rx="0"
           ry="0"
           fill="url(#linearGradient1569)"
           style="fill:url(#linearGradient1569);paint-order:stroke fill markers"
           id="rect64" />
        <rect
           x="2479.5"
           y="-672.53003"
           width="135.00999"
           height="1048.7"
           rx="0"
           ry="0"
           fill="url(#linearGradient1571)"
           style="fill:url(#linearGradient1571);paint-order:stroke fill markers"
           id="rect66" />
        <rect
           x="2074.3999"
           y="-672.53003"
           width="135.00999"
           height="1048.7"
           rx="0"
           ry="0"
           fill="url(#linearGradient1573)"
           style="fill:url(#linearGradient1573);paint-order:stroke fill markers"
           id="rect68" />
        <rect
           x="1939.4"
           y="-672.53003"
           width="135.00999"
           height="1048.7"
           rx="0"
           ry="0"
           fill="url(#linearGradient1575)"
           style="fill:url(#linearGradient1575);paint-order:stroke fill markers"
           id="rect70" />
        <rect
           x="1804.4"
           y="-672.53003"
           width="135.00999"
           height="1048.7"
           rx="0"
           ry="0"
           fill="url(#linearGradient1577)"
           style="fill:url(#linearGradient1577);paint-order:stroke fill markers"
           id="rect72" />
      </g>
      <path
         transform="matrix(0.41939,0,0,0.46496,-1129.9,-1.0838)"
         d="m 2094.2,-339.01 a 62.778,62.778 0 0 0 -0.4195,0.004 62.778,62.778 0 0 0 -61.991,62.765 v 392.18 a 62.778,62.778 0 0 0 94.16,54.364 l 339.64,-196.09 a 62.778,62.778 0 0 0 0,-108.72 l -339.64,-196.09 a 62.778,62.778 0 0 0 -31.752,-8.4054 z"
         clip-path="url(#clipPath1131)"
         color="#000000"
         color-rendering="auto"
         dominant-baseline="auto"
         fill="none"
         filter="url(#filter1127)"
         image-rendering="auto"
         opacity="0.24928"
         shape-rendering="auto"
         solid-color="#000000"
         stop-color="#000000"
         stroke="url(#linearGradient1565)"
         stroke-linecap="round"
         stroke-linejoin="round"
         stroke-width="20"
         style="font-variant-ligatures:normal;font-variant-position:normal;font-variant-caps:normal;font-variant-numeric:normal;font-variant-alternates:normal;font-variant-east-asian:normal;font-feature-settings:normal;font-variation-settings:normal;text-indent:0;text-decoration:none;text-decoration-line:none;text-decoration-style:solid;text-decoration-color:#000000;text-transform:none;text-orientation:mixed;white-space:normal;shape-padding:0;shape-margin:0;inline-size:0;isolation:auto;mix-blend-mode:normal;stroke:url(#linearGradient1565);paint-order:stroke fill markers"
         id="path76" />
    </g>
    <g
       fill="#3a3a3a"
       stroke-linecap="round"
       stroke-linejoin="round"
       stroke-width="13.463"
       style="paint-order:stroke fill markers"
       aria-label="assistecomigo"
       id="g163"
       transform="matrix(0.29052741,0,0,0.29052741,180.14644,19.429747)">
      <path
         d="m -387.55,151.69 q -8.7483,0 -14.677,-3.1812 -5.8563,-3.2535 -8.8929,-8.5314 -2.9643,-5.2779 -2.9643,-11.568 0,-6.1455 2.3136,-10.628 2.3859,-4.5549 6.6516,-7.5192 4.2657,-3.0366 10.194,-4.7718 5.5671,-1.5183 12.436,-2.6028 6.9408,-1.1568 14.026,-2.0967 7.0854,-0.9399 13.231,-1.8075 l -4.6272,2.6751 q 0.2169,-10.411 -4.1934,-15.4 -4.338,-4.9887 -15.038,-4.9887 -7.0854,0 -12.436,3.2535 -5.2779,3.1812 -7.4469,10.411 l -12.219,-3.6873 q 2.8197,-10.267 10.917,-16.123 8.0976,-5.8563 21.328,-5.8563 10.628,0 18.22,3.8319 7.6638,3.7596 10.99,11.423 1.6629,3.615 2.0967,7.8807 0.4338,4.1934 0.4338,8.8206 v 48.296 h -11.423 v -18.726 l 2.6751,1.7352 q -4.4103,9.4713 -12.363,14.315 -7.8807,4.8441 -19.232,4.8441 z m 1.9521,-10.773 q 6.9408,0 12.002,-2.4582 5.1333,-2.5305 8.2422,-6.5793 3.1089,-4.1211 4.0488,-8.9652 1.0845,-3.615 1.1568,-8.0253 0.1446,-4.4826 0.1446,-6.8685 l 4.4826,1.9521 q -6.2901,0.8676 -12.363,1.6629 -6.0729,0.7953 -11.496,1.7352 -5.4225,0.8676 -9.7605,2.0967 -3.1812,1.0122 -6.0009,2.6028 -2.7474,1.5906 -4.4826,4.1211 -1.6629,2.4582 -1.6629,6.1455 0,3.1812 1.5906,6.0732 1.6629,2.892 5.061,4.6995 3.4704,1.8075 9.0375,1.8075 z"
         id="path137" />
      <path
         d="m -298.91,151.62 q -13.954,0 -22.919,-6.0732 -8.8929,-6.1455 -10.917,-17.135 l 13.159,-2.0967 q 1.5906,6.3624 7.3023,10.122 5.7117,3.6873 14.171,3.6873 8.0253,0 12.58,-3.3258 4.5547,-3.3258 4.5549,-9.0375 0,-3.3258 -1.5183,-5.3502 -1.5183,-2.0967 -6.2901,-3.9042 -4.6995,-1.8075 -14.243,-4.338 -10.339,-2.7474 -16.268,-5.7117 -5.929,-2.9643 -8.4591,-6.8685 -2.5305,-3.9042 -2.5305,-9.4713 0,-6.8685 3.7596,-12.002 3.7596,-5.2056 10.484,-8.0253 6.7962,-2.8197 15.761,-2.8197 8.8929,0 15.906,2.8197 7.0131,2.8197 11.279,8.0253 4.338,5.1333 5.1333,12.002 l -13.159,2.3859 q -0.9399,-6.2901 -6.0732,-9.9051 -5.061,-3.615 -13.086,-3.8319 -7.5915,-0.2892 -12.363,2.6751 -4.6995,2.9643 -4.6995,8.0253 0,2.8197 1.7352,4.8441 1.8075,2.0244 6.5793,3.8319 4.8441,1.8075 14.026,4.1211 10.339,2.6028 16.268,5.7117 6.0009,3.0366 8.5314,7.23 2.5305,4.1211 2.5305,10.194 0,11.279 -8.3145,17.786 -8.3145,6.4347 -22.919,6.4347 z"
         id="path139" />
      <path
         d="m -222.09,151.62 q -13.954,0 -22.919,-6.0732 -8.8929,-6.1455 -10.917,-17.135 l 13.159,-2.0967 q 1.5906,6.3624 7.3023,10.122 5.7117,3.6873 14.171,3.6873 8.0253,0 12.58,-3.3258 4.5547,-3.3258 4.5549,-9.0375 0,-3.3258 -1.5183,-5.3502 -1.5183,-2.0967 -6.2901,-3.9042 -4.6995,-1.8075 -14.243,-4.338 -10.339,-2.7474 -16.268,-5.7117 -5.9286,-2.9643 -8.4591,-6.8685 -2.5305,-3.9042 -2.5305,-9.4713 0,-6.8685 3.7596,-12.002 3.7596,-5.2056 10.484,-8.0253 6.7962,-2.8197 15.761,-2.8197 8.8929,0 15.906,2.8197 7.0131,2.8197 11.279,8.0253 4.338,5.1333 5.1333,12.002 l -13.159,2.3859 q -0.9399,-6.2901 -6.0732,-9.9051 -5.061,-3.615 -13.086,-3.8319 -7.5915,-0.2892 -12.363,2.6751 -4.6995,2.9643 -4.6995,8.0253 0,2.8197 1.7352,4.8441 1.8075,2.0244 6.5793,3.8319 4.8441,1.8075 14.026,4.1211 10.339,2.6028 16.268,5.7117 6.0009,3.0366 8.5314,7.23 2.5305,4.1211 2.5305,10.194 0,11.279 -8.3145,17.786 -8.3145,6.4347 -22.919,6.4347 z"
         id="path141" />
      <path
         d="M -173.32,57.626 V 44.323 h 12.869 v 13.303 z m 0,91.893 V 71.435 h 12.869 v 78.084 z"
         id="path143" />
      <path
         d="m -109.4,151.62 q -13.954,0 -22.919,-6.0732 -8.8929,-6.1455 -10.917,-17.135 l 13.159,-2.0967 q 1.5906,6.3624 7.3023,10.122 5.7117,3.6873 14.171,3.6873 8.0253,0 12.58,-3.3258 4.5549,-3.3258 4.5549,-9.0375 0,-3.3258 -1.5183,-5.3502 -1.5183,-2.0967 -6.2901,-3.9042 -4.6995,-1.8075 -14.243,-4.338 -10.339,-2.7474 -16.268,-5.7117 -5.929,-2.9643 -8.4591,-6.8685 -2.5305,-3.9042 -2.5305,-9.4713 0,-6.8685 3.7596,-12.002 3.7596,-5.2056 10.484,-8.0253 6.7962,-2.8197 15.761,-2.8197 8.8929,0 15.906,2.8197 7.0131,2.8197 11.279,8.0253 4.338,5.1333 5.1333,12.002 l -13.159,2.3859 q -0.9399,-6.2901 -6.0732,-9.9051 -5.061,-3.615 -13.086,-3.8319 -7.5915,-0.2892 -12.363,2.6751 -4.6995,2.9643 -4.6995,8.0253 0,2.8197 1.7352,4.8441 1.8075,2.0244 6.5793,3.8319 4.8441,1.8075 14.026,4.1211 10.339,2.6028 16.267,5.7117 6.0009,3.0366 8.5314,7.23 2.5305,4.1211 2.5305,10.194 0,11.279 -8.3145,17.786 -8.3145,6.4347 -22.919,6.4347 z"
         id="path145" />
      <path
         d="m -18.486,149.52 q -6.9408,1.3737 -13.737,1.0845 -6.7239,-0.2169 -12.002,-2.6751 -5.2779,-2.5305 -8.0253,-7.8084 -2.3136,-4.6272 -2.5305,-9.3267 -0.1446,-4.7718 -0.1446,-10.773 v -70.276 h 12.869 v 69.697 q 0,4.7718 0.0723,8.1699 0.1446,3.3981 1.5183,5.8563 2.6028,4.6272 8.2422,5.4225 5.7117,0.7953 13.737,-0.4338 z M -70.759,82.064 V 71.436 h 52.273 v 10.628 z"
         id="path147" />
      <path
         d="m 27.955,151.69 q -11.496,0 -20.099,-5.061 -8.5314,-5.1333 -13.303,-14.243 -4.7718,-9.1821 -4.7718,-21.401 0,-12.797 4.6995,-22.124 4.6995,-9.399 13.086,-14.46 8.4591,-5.1333 19.81,-5.1333 11.785,0 20.027,5.4225 8.3145,5.4225 12.436,15.472 4.1934,10.05 3.615,23.931 H 50.4407 V 109.466 Q 50.2238,95.078 44.5844,87.993 38.945,80.8353 27.8104,80.8353 q -11.93,0 -18.147,7.6638 -6.2178,7.6638 -6.2178,21.979 0,13.809 6.2178,21.401 6.2178,7.5915 17.714,7.5915 7.7361,0 13.448,-3.5427 5.7117,-3.5427 8.9652,-10.194 l 12.363,4.2657 q -4.5549,10.339 -13.737,16.051 -9.1098,5.6394 -20.461,5.6394 z M -0.893,114.094 v -10.339 h 57.695 v 10.339 z"
         id="path149" />
      <path
         d="m 113.83,151.69 q -12.146,0 -20.822,-5.4225 -8.676,-5.4225 -13.303,-14.749 -4.627,-9.3265 -4.6272,-21.039 0,-11.857 4.7718,-21.184 4.8441,-9.3267 13.592,-14.677 8.7483,-5.3502 20.678,-5.3502 13.809,0 23.136,7.0131 9.399,6.9408 12.002,19.015 l -19.666,5.2056 q -1.7352,-6.0732 -6.0732,-9.4713 -4.2657,-3.3981 -9.6882,-3.3981 -6.2178,0 -10.194,3.0366 -3.9765,2.9643 -5.8563,8.1699 -1.8798,5.1333 -1.8798,11.64 0,10.194 4.4826,16.557 4.5549,6.2901 13.448,6.2901 6.6516,0 10.122,-3.0366 3.4704,-3.0366 5.2056,-8.676 l 20.099,4.1934 q -3.3258,12.436 -12.58,19.16 -9.2542,6.724 -22.847,6.7239 z"
         id="path151" />
      <path
         d="m 196.73,151.69 q -11.785,0 -20.678,-5.2779 -8.893,-5.2779 -13.882,-14.532 -4.9164,-9.3267 -4.9164,-21.401 0,-12.219 5.061,-21.473 5.061,-9.3267 13.954,-14.532 8.893,-5.2053 20.461,-5.2056 11.785,0 20.678,5.2779 8.9652,5.2779 13.954,14.605 4.9887,9.2544 4.9887,21.329 0,12.146 -5.061,21.473 -4.9887,9.2544 -13.954,14.532 -8.8929,5.2056 -20.606,5.2056 z m 0,-18.364 q 9.4713,0 14.098,-6.3624 4.6995,-6.4347 4.6995,-16.484 0,-10.411 -4.7718,-16.629 -4.6995,-6.2178 -14.026,-6.2178 -6.4347,0 -10.556,2.892 -4.1213,2.892 -6.1455,8.0253 -1.9521,5.1333 -1.9521,11.93 0,10.484 4.6995,16.701 4.7718,6.1455 13.954,6.1455 z"
         id="path153" />
      <path
         d="m 346.24,149.52 v -46.127 q 0,-7.7361 -3.6873,-12.002 -3.615,-4.338 -10.05,-4.338 -4.1211,0 -7.1577,1.9521 -3.0366,1.8798 -4.7718,5.3502 -1.6629,3.3981 -1.6629,7.8807 l -8.2422,-5.4948 q 0,-8.0253 3.7596,-14.171 3.8319,-6.1455 10.194,-9.5436 6.4347,-3.4704 14.243,-3.4704 13.376,0 20.172,7.953 6.8685,7.8807 6.8685,20.678 v 51.333 z m -94.135,0 V 71.436 h 17.352 v 25.883 h 2.4582 v 52.201 z m 47.14,0 v -46.127 q 0,-7.7361 -3.6873,-12.002 -3.615,-4.338 -10.05,-4.338 -6.1455,0 -9.9051,4.2657 -3.6873,4.1934 -3.6873,10.917 l -8.2422,-5.784 q 0,-7.6638 3.8319,-13.737 3.8319,-6.0732 10.267,-9.6159 6.507,-3.5427 14.532,-3.5427 9.1821,0 15.038,3.9042 5.9286,3.9042 8.7483,10.411 2.8197,6.507 2.8197,14.315 v 51.333 z"
         id="path155" />
      <path
         d="M 386.15,60.59 V 43.238 h 19.666 V 60.59 Z m 0,88.929 V 71.435 h 19.666 v 78.084 z"
         id="path157" />
      <path
         d="m 461.04,186.39 q -6.6516,0 -12.652,-2.169 -6.0009,-2.0967 -10.773,-5.9286 -4.6995,-3.7596 -7.6638,-8.8206 l 18.22,-8.8206 q 1.8798,3.4704 5.3502,5.2779 3.5427,1.8075 7.6638,1.8075 4.4103,0 8.3145,-1.5183 3.9042,-1.446 6.2178,-4.4103 2.3859,-2.892 2.2413,-7.23 v -22.702 h 2.4582 V 71.433 h 17.207 v 83.434 q 0,2.892 -0.2892,5.4225 -0.2169,2.6028 -0.8676,5.1333 -1.8798,7.1577 -7.0131,11.785 -5.061,4.6272 -12.436,6.8685 -7.3746,2.3136 -15.978,2.3136 z m -1.7352,-34.704 q -10.773,0 -18.87,-5.4225 -8.097,-5.4225 -12.652,-14.749 -4.4826,-9.3267 -4.4826,-21.039 0,-11.93 4.5549,-21.184 4.6272,-9.3267 12.942,-14.677 8.3148,-5.3503 19.521,-5.3502 11.134,0 18.726,5.4225 7.592,5.4225 11.496,14.749 3.9042,9.3267 3.9042,21.039 0,11.713 -3.9765,21.039 -3.9042,9.3267 -11.713,14.749 -7.8088,5.4223 -19.449,5.4225 z m 3.1812,-17.497 q 6.5793,0 10.484,-2.9643 3.9765,-2.9643 5.7117,-8.3145 1.7352,-5.3502 1.7352,-12.436 0,-7.0858 -1.7352,-12.436 -1.7352,-5.3502 -5.5671,-8.3145 -3.7596,-2.9643 -9.9051,-2.9643 -6.5793,0 -10.845,3.2535 -4.1934,3.1812 -6.2178,8.6037 -2.0244,5.3502 -2.0244,11.857 0,6.5793 1.9521,12.002 1.9521,5.3502 6.0009,8.5314 4.0488,3.1812 10.411,3.1812 z"
         id="path159" />
      <path
         d="m 552.87,151.69 q -11.785,0 -20.678,-5.2779 -8.893,-5.2779 -13.882,-14.532 -4.9164,-9.3267 -4.9164,-21.401 0,-12.219 5.061,-21.473 5.061,-9.3267 13.954,-14.532 8.893,-5.2053 20.461,-5.2056 11.785,0 20.678,5.2779 8.9652,5.2779 13.954,14.605 4.9887,9.2544 4.9887,21.329 0,12.146 -5.061,21.473 -4.9887,9.2544 -13.954,14.532 -8.8929,5.2056 -20.606,5.2056 z m 0,-18.364 q 9.4713,0 14.098,-6.3624 4.6995,-6.4347 4.6995,-16.484 0,-10.411 -4.7718,-16.629 -4.6995,-6.2178 -14.026,-6.2178 -6.4347,0 -10.556,2.892 -4.1213,2.892 -6.1455,8.0253 -1.9521,5.1333 -1.9521,11.93 0,10.484 4.6995,16.701 4.7718,6.1455 13.954,6.1455 z"
         id="path161" />
    </g>
    <rect
       style="fill:url(#linearGradient217);fill-opacity:1;stroke-width:3.37064"
       id="rect209"
       width="4.655838"
       height="6.2258263"
       x="338.39279"
       y="57.705006" />
  </g>
</svg>
